<?xml version="1.0" encoding="UTF-8" standalone="no"?>
<!-- Created with Inkscape (http://www.inkscape.org/) -->

<svg
   xmlns:dc="http://purl.org/dc/elements/1.1/"
   xmlns:cc="http://creativecommons.org/ns#"
   xmlns:rdf="http://www.w3.org/1999/02/22-rdf-syntax-ns#"
   xmlns:svg="http://www.w3.org/2000/svg"
   xmlns="http://www.w3.org/2000/svg"
   xmlns:sodipodi="http://sodipodi.sourceforge.net/DTD/sodipodi-0.dtd"
   xmlns:inkscape="http://www.inkscape.org/namespaces/inkscape"
   width="64px"
   height="64px"
   id="svg3114"
   version="1.1"
   inkscape:version="0.48.4 r9939"
   sodipodi:docname="knightblack.svg">
  <defs
     id="defs3116" />
  <sodipodi:namedview
     id="base"
     pagecolor="#ffffff"
     bordercolor="#666666"
     borderopacity="1.0"
     inkscape:pageopacity="0.0"
     inkscape:pageshadow="2"
     inkscape:zoom="5.5"
     inkscape:cx="35.525284"
     inkscape:cy="39.978551"
     inkscape:current-layer="layer1"
     showgrid="false"
     inkscape:document-units="px"
     inkscape:grid-bbox="true"
     inkscape:window-width="1215"
     inkscape:window-height="776"
     inkscape:window-x="65"
     inkscape:window-y="24"
     inkscape:window-maximized="1">
    <inkscape:grid
       type="xygrid"
       id="grid3135" />
  </sodipodi:namedview>
  <metadata
     id="metadata3119">
    <rdf:RDF>
      <cc:Work
         rdf:about="">
        <dc:format>image/svg+xml</dc:format>
        <dc:type
           rdf:resource="http://purl.org/dc/dcmitype/StillImage" />
        <dc:title></dc:title>
      </cc:Work>
    </rdf:RDF>
  </metadata>
  <g
     id="layer1"
     inkscape:label="Layer 1"
     inkscape:groupmode="layer">
    <path
       style="fill:#cccccc"
       d="m 26.73592,14.981789 11.619054,0 c 1.936508,14.642446 0,27.454586 11.619053,43.927337 l -34.85716,0 C 26.73592,42.436375 24.799412,29.624235 26.73592,14.981789 z"
       id="rect3040"
       inkscape:connector-curvature="0"
       sodipodi:nodetypes="ccccc" />
    <path
       style="fill:#cccccc"
       d="m 49.98329,58.863636 c -9.98329,0 -24.98879,0 -35.029238,0 -4.9540522,-15 40.045948,-15 35.029238,0 z"
       id="rect3282"
       inkscape:connector-curvature="0"
       sodipodi:nodetypes="ccc" />
    <path
       style="fill:#cccccc;fill-opacity:1"
       d="m 22.272727,13.090909 c 4.145749,-1.037076 -1.454545,-0.818182 8,-4.090909 2.628501,-0.9098656 7.510434,-0.2485865 8.772728,-2.7272727 l -1.068182,3.6363636 c 6.569661,0.6581191 8.332205,4.7684211 7.823903,9.0454051 -0.254151,2.138493 -2.076393,7.935735 -2.694009,9.947984 -0.890722,2.902055 1.604241,7.79873 0.347378,8.461156 -4.375,0.625 -11.754832,-7.250849 -15.242798,-6.907414 -3.487966,0.343435 -5.905913,-1.110051 -8.302656,-2.183495 -5.171172,-2.316044 -5.68818,2.717299 -7.476433,2.454771 C 10.644405,30.46497 9.2686878,30.043812 8.293114,29.456886 7.3175402,28.86996 6.7421098,28.117265 6.5544305,27.191663 6.3667511,26.266062 6.5668229,25.167552 7.1422532,23.888997 7.7176836,22.610442 10.686245,20.827605 12,19.181818 c 1.313755,-1.645786 8.245432,-4.063614 10.272727,-6.090909 z"
       id="rect3187"
       inkscape:connector-curvature="0"
       sodipodi:nodetypes="csccsscsssssssc" />
  </g>
</svg>
