<?xml version="1.0" encoding="UTF-8" standalone="no"?>
<!-- Created with Inkscape (http://www.inkscape.org/) -->

<svg
   xmlns:dc="http://purl.org/dc/elements/1.1/"
   xmlns:cc="http://creativecommons.org/ns#"
   xmlns:rdf="http://www.w3.org/1999/02/22-rdf-syntax-ns#"
   xmlns:svg="http://www.w3.org/2000/svg"
   xmlns="http://www.w3.org/2000/svg"
   xmlns:sodipodi="http://sodipodi.sourceforge.net/DTD/sodipodi-0.dtd"
   xmlns:inkscape="http://www.inkscape.org/namespaces/inkscape"
   width="64px"
   height="64px"
   id="svg3114"
   version="1.1"
   inkscape:version="0.48.4 r9939"
   sodipodi:docname="pawn.svg">
  <defs
     id="defs3116" />
  <sodipodi:namedview
     id="base"
     pagecolor="#ffffff"
     bordercolor="#666666"
     borderopacity="1.0"
     inkscape:pageopacity="0.0"
     inkscape:pageshadow="2"
     inkscape:zoom="5.4362503"
     inkscape:cx="31.494387"
     inkscape:cy="16.342248"
     inkscape:current-layer="layer1"
     showgrid="true"
     inkscape:document-units="px"
     inkscape:grid-bbox="true"
     inkscape:window-width="1215"
     inkscape:window-height="776"
     inkscape:window-x="65"
     inkscape:window-y="24"
     inkscape:window-maximized="1">
    <inkscape:grid
       type="xygrid"
       id="grid3135" />
  </sodipodi:namedview>
  <metadata
     id="metadata3119">
    <rdf:RDF>
      <cc:Work
         rdf:about="">
        <dc:format>image/svg+xml</dc:format>
        <dc:type
           rdf:resource="http://purl.org/dc/dcmitype/StillImage" />
        <dc:title />
      </cc:Work>
    </rdf:RDF>
  </metadata>
  <g
     id="layer1"
     inkscape:label="Layer 1"
     inkscape:groupmode="layer">
    <path
       style="fill:#241f1c"
       d="M 49.98329,59 C 40,59 24.9945,59 14.954052,59 10,44 55,44 49.98329,59 z"
       id="rect3282"
       inkscape:connector-curvature="0"
       sodipodi:nodetypes="ccc" />
    <path
       style="fill:#241f1c"
       d="m 26.73592,14.981789 11.619054,0 c 1.936508,14.642446 0,27.454586 11.619053,43.927337 l -34.85716,0 C 26.73592,42.436375 24.799412,29.624235 26.73592,14.981789 z"
       id="rect3040"
       inkscape:connector-curvature="0"
       sodipodi:nodetypes="ccccc" />
    <path
       style="fill:#241f1c"
       d="m 22.645035,34.891125 19.892803,0 c -9.537838,0 2.745459,1.224474 2.745459,2.745458 0,1.520984 -12.283297,2.745459 -2.745459,2.745459 l -19.892803,0 c 9.354965,0 -2.745459,-1.224475 -2.745459,-2.745459 0,-1.520984 12.100424,-2.745458 2.745459,-2.745458 z"
       id="rect3042"
       inkscape:connector-curvature="0"
       sodipodi:nodetypes="sssssss" />
    <path
       sodipodi:type="arc"
       style="fill:#241f1c"
       id="path3044"
       sodipodi:cx="280"
       sodipodi:cy="252.36218"
       sodipodi:rx="120"
       sodipodi:ry="120"
       d="m 400,252.36218 a 120,120 0 1 1 -240,0 120,120 0 1 1 240,0 z"
       transform="matrix(0.14523817,0,0,0.13727293,-8.1212406,-14.16979)" />
  </g>
</svg>
